<svg xmlns="http://www.w3.org/2000/svg" viewBox="0 0 100 100">
  <defs>
    <linearGradient id="flameGradient" x1="0%" y1="0%" x2="100%" y2="100%">
      <stop offset="0%" style="stop-color:#2563eb;stop-opacity:1" />
      <stop offset="100%" style="stop-color:#9333ea;stop-opacity:1" />
    </linearGradient>
  </defs>
  
  <!-- Flame icon with gradient -->
  <path 
    fill="url(#flameGradient)" 
    d="M61.975 12.765a5 5 0 00-7.25-1.925c-1.725 1.15-3.07 2.79-4.11 4.4-1.07 1.65-2.015 3.565-2.85 5.58-1.67 4.02-3.07 8.84-4.2 13.67a156.825 156.825 0 00-3.065 17.9 13.2 13.2 0 01-4.725-5.335c-1.64-3.4-1.99-7.67-1.99-13.27A5 5 0 0025.25 30.25 34.905 34.905 0 0015 55a35 35 0 1059.75-24.75c-2.96-2.955-4.9-4.925-6.74-7.335-1.815-2.38-3.62-5.315-6.035-10.15zM60.6 75.6A15 15 0 0135 65s4.395 2.5 12.5 2.5c0-5 2.5-20 6.25-22.5 2.5 5 3.93 6.465 6.855 9.395A14.95 14.95 0 0165 65a14.95 14.95 0 01-4.395 10.605z"
  />
</svg>

